<?xml version="1.0" encoding="UTF-8" standalone="no"?>
<svg
   xmlns:dc="http://purl.org/dc/elements/1.1/"
   xmlns:cc="http://creativecommons.org/ns#"
   xmlns:rdf="http://www.w3.org/1999/02/22-rdf-syntax-ns#"
   xmlns:svg="http://www.w3.org/2000/svg"
   xmlns="http://www.w3.org/2000/svg"
   xmlns:sodipodi="http://sodipodi.sourceforge.net/DTD/sodipodi-0.dtd"
   xmlns:inkscape="http://www.inkscape.org/namespaces/inkscape"
   version="1.1"
   id="Ebene_1"
   x="0px"
   y="0px"
   width="288"
   height="288"
   viewBox="0 0 288 288"
   xml:space="preserve"
   sodipodi:docname="logo.svg"
   inkscape:version="1.0.2 (e86c870879, 2021-01-15)"><metadata
   id="metadata57"><rdf:RDF><cc:Work
       rdf:about=""><dc:format>image/svg+xml</dc:format><dc:type
         rdf:resource="http://purl.org/dc/dcmitype/StillImage" /><dc:title></dc:title></cc:Work></rdf:RDF></metadata><defs
   id="defs55" /><sodipodi:namedview
   pagecolor="#ffffff"
   bordercolor="#666666"
   borderopacity="1"
   objecttolerance="10"
   gridtolerance="10"
   guidetolerance="10"
   inkscape:pageopacity="0"
   inkscape:pageshadow="2"
   inkscape:window-width="1916"
   inkscape:window-height="1056"
   id="namedview53"
   showgrid="false"
   inkscape:zoom="2.45"
   inkscape:cx="78.081633"
   inkscape:cy="144"
   inkscape:window-x="0"
   inkscape:window-y="20"
   inkscape:window-maximized="1"
   inkscape:current-layer="Ebene_1"
   fit-margin-top="79"
   fit-margin-left="34"
   fit-margin-right="34"
   fit-margin-bottom="79" />
<path
   fill-rule="evenodd"
   clip-rule="evenodd"
   fill="#1d224d"
   d="m 188.51328,91.302032 c 3.91669,3.086308 7.52419,6.436398 10.81952,10.062128 0.4907,0.53842 0.8647,1.62318 0.8717,2.33153 0.058,4.87546 -0.1965,10.01174 -0.748,15.31399 -0.087,0.83382 -0.7061,1.03832 -1.36441,0.52163 -4.47023,-3.50914 -9.2277,-6.85232 -14.29137,-10.04336 -0.76,-0.47717 -1.1769,-1.52438 -0.9196,-2.37598 1.61973,-5.36943 3.04199,-10.51263 4.22986,-15.323873 0.1716,-0.694519 0.8188,-0.947431 1.40231,-0.486065"
   id="path2"
   inkscape:transform-center-x="-68.967598"
   inkscape:transform-center-y="-49.24386"
   style="stroke-width:0.992645" />
<path
   fill-rule="evenodd"
   clip-rule="evenodd"
   fill="#1d224d"
   d="m 218.45346,111.21191 c 2.63606,4.05251 4.937,8.31545 6.87689,12.74239 0.2852,0.66093 0.7191,1.77236 0.9425,2.44218 1.49507,4.49115 2.61911,9.13939 3.36814,13.88049 0.1147,0.72218 -0.2304,0.819 -0.6822,0.24699 -3.0759,-3.8895 -6.53579,-7.71874 -10.31285,-11.42548 -0.5875,-0.57596 -0.9884,-1.66368 -0.9375,-2.48268 0.3411,-5.24495 0.369,-10.33875 0.075,-15.18259 -0.039,-0.70935 0.2703,-0.83976 0.6702,-0.2213 z"
   id="path4"
   inkscape:transform-center-x="-101.14245"
   inkscape:transform-center-y="-28.829564"
   style="stroke-width:0.992645" />
<path
   fill-rule="evenodd"
   clip-rule="evenodd"
   fill="#1d224d"
   d="m 110.46376,93.864737 c 4.99086,-0.09089 10.22607,0.131396 15.61589,0.656973 0.8368,0.082 1.03627,0.69946 0.5186,1.35842 -3.53868,4.51091 -6.92477,9.30339 -10.15327,14.37051 -0.4877,0.76368 -1.54493,1.19837 -2.40168,0.9504 -5.46262,-1.59256 -10.70581,-2.9895 -15.63285,-4.15329 -0.7191,-0.1719 -0.9585,-0.81505 -0.4957,-1.40188 3.12976,-3.91519 6.52283,-7.54882 10.17921,-10.87915 0.5406,-0.49693 1.63968,-0.888152 2.36976,-0.901983 z"
   id="path6"
   inkscape:transform-center-x="10.261335"
   inkscape:transform-center-y="-52.126804"
   style="stroke-width:0.992645" />
<path
   fill-rule="evenodd"
   clip-rule="evenodd"
   fill="#1d224d"
   d="m 109.6479,115.17946 c 5.95932,2.18827 12.07621,4.52771 18.39657,7.03607 0.9365,0.37048 1.35145,1.47203 0.9066,2.42144 -3.00709,6.42553 -5.93538,12.95677 -8.70908,19.45245 -0.4119,0.96719 -1.51002,1.40188 -2.42062,0.96027 -6.12388,-2.9559 -11.97348,-5.87328 -17.61464,-8.77583 -0.8208,-0.42481 -1.21978,-1.51945 -0.8667,-2.40958 2.37175,-5.98293 5.03175,-11.92833 7.92514,-17.70479 0.4289,-0.85654 1.518,-1.3021 2.38273,-0.98003 z"
   id="path8"
   inkscape:transform-center-x="8.3706338"
   inkscape:transform-center-y="-24.536154"
   style="stroke-width:0.992645" />
<path
   fill-rule="evenodd"
   clip-rule="evenodd"
   fill="#1d224d"
   d="m 181.71418,141.68775 c 6.11989,2.95392 11.97647,5.8713 17.61263,8.77385 0.8198,0.42086 1.22278,1.52044 0.8697,2.41057 -2.38372,6.0017 -5.04771,11.95105 -7.93012,17.70479 -0.4279,0.85654 -1.51701,1.29716 -2.38273,0.98102 -5.95632,-2.18828 -12.07421,-4.52672 -18.39158,-7.03608 -0.9535,-0.37838 -1.35643,-1.47202 -0.9096,-2.42242 2.9981,-6.40083 5.92041,-12.93504 8.70907,-19.45245 0.4129,-0.96818 1.50204,-1.40484 2.42263,-0.95928 z"
   id="path10"
   inkscape:transform-center-x="-62.82145"
   inkscape:transform-center-y="1.901911"
   style="stroke-width:0.992645" />
<path
   fill-rule="evenodd"
   clip-rule="evenodd"
   fill="#1d224d"
   d="m 84.377434,128.74283 c 5.5085,3.02308 11.250376,6.03134 17.266536,9.04652 0.8947,0.45248 1.34247,1.60243 0.9715,2.54295 -2.41266,6.22696 -4.64677,12.29585 -6.69638,18.19184 -0.2982,0.85951 -1.20483,1.20627 -1.985767,0.73305 -5.276109,-3.18313 -10.248019,-6.48184 -14.942659,-9.92579 -0.6852,-0.50681 -1.11906,-1.64491 -0.9475,-2.48169 1.16593,-5.66581 2.62709,-11.44523 4.37947,-17.30666 0.2673,-0.8842 1.15197,-1.24381 1.95486,-0.80022 z"
   id="path12"
   inkscape:transform-center-x="32.165261"
   inkscape:transform-center-y="-10.673294"
   style="stroke-width:0.992645" />
<path
   fill-rule="evenodd"
   clip-rule="evenodd"
   fill="#1d224d"
   d="m 160.11604,167.98758 c 6.29642,2.38586 12.40734,4.57513 18.37163,6.58756 0.8707,0.29539 1.19685,1.18452 0.7121,1.97684 -3.21554,5.23211 -6.56173,10.1876 -10.0286,14.85658 -0.5117,0.68464 -1.65564,1.13711 -2.49244,0.96719 -5.7339,-1.12921 -11.5466,-2.55974 -17.46901,-4.29159 -0.8897,-0.26279 -1.23175,-1.1549 -0.7859,-1.95513 3.04,-5.46625 6.08698,-11.18836 9.12897,-17.1466 0.4638,-0.90396 1.61475,-1.35446 2.56325,-0.99485 z"
   id="path14"
   inkscape:transform-center-x="-41.285594"
   inkscape:transform-center-y="25.452917"
   style="stroke-width:0.992645" />
<path
   fill-rule="evenodd"
   clip-rule="evenodd"
   fill="#1d224d"
   d="m 185.5052,176.78217 c 5.44866,1.59058 10.69385,2.98752 15.6488,4.16218 0.7151,0.16893 0.9814,0.82196 0.5147,1.40879 -3.11879,3.90037 -6.51186,7.51226 -10.15028,10.81395 -0.5456,0.491 -1.66163,0.88123 -2.3927,0.89309 -5.00981,0.078 -10.24403,-0.15017 -15.62187,-0.67772 -0.8328,-0.08 -1.03528,-0.70243 -0.5156,-1.36138 3.51674,-4.47337 6.89585,-9.24214 10.11637,-14.29148 0.4857,-0.76169 1.54493,-1.19639 2.40068,-0.94743 z"
   id="path16"
   inkscape:transform-center-x="-64.761328"
   inkscape:transform-center-y="30.708771"
   style="stroke-width:0.992645" />
<path
   fill-rule="evenodd"
   clip-rule="evenodd"
   fill="#1d224d"
   d="m 36.653075,120.85712 c 4.18398,2.83735 8.74597,5.74979 13.606179,8.6889 0.764,0.45939 1.14598,1.53031 0.9006,2.39969 -1.61276,5.75275 -2.91034,11.43437 -3.897739,17.02115 -0.1416,0.82393 -0.7401,1.09265 -1.36441,0.53151 -4.01144,-3.60103 -7.69375,-7.28801 -10.98109,-11.00758 -0.4817,-0.54633 -0.9196,-1.6133 -0.9166,-2.3424 0.027,-4.88435 0.4538,-9.80131 1.27664,-14.71135 0.1237,-0.73601 0.77,-0.9909 1.37638,-0.57992 z"
   id="path18"
   inkscape:transform-center-x="79.924296"
   inkscape:transform-center-y="-19.456894"
   style="stroke-width:0.992645" />
<path
   fill-rule="evenodd"
   clip-rule="evenodd"
   fill="#1d224d"
   d="m 101.51132,168.35213 c 4.47423,3.50618 9.22871,6.84639 14.29338,10.03544 0.755,0.4752 1.17989,1.5234 0.9196,2.37598 -1.62472,5.39117 -3.06393,10.58672 -4.27474,15.44341 -0.1765,0.70737 -0.8258,0.93854 -1.4053,0.48607 -3.9127,-3.08928 -7.5222,-6.43937 -10.81454,-10.06509 -0.4957,-0.53843 -0.8697,-1.61034 -0.8717,-2.33054 -0.035,-4.91794 0.2354,-10.09669 0.7909,-15.42167 0.082,-0.83184 0.7031,-1.03832 1.36241,-0.5236 z"
   id="path20"
   inkscape:transform-center-x="14.463138"
   inkscape:transform-center-y="27.814232"
   style="stroke-width:0.992645" />
<path
   fill-rule="evenodd"
   clip-rule="evenodd"
   fill="#1d224d"
   d="m 122.36243,182.07257 c 5.60724,2.81068 11.45285,5.37437 17.33137,7.61204 0.8667,0.32997 1.25271,1.20726 0.8149,1.98674 -2.78267,4.94166 -5.52146,9.61755 -8.13857,13.90618 -0.381,0.62537 -1.30756,0.97707 -2.02667,0.73009 -4.87018,-1.65282 -9.63763,-3.74724 -14.13479,-6.21115 -0.6682,-0.36258 -1.02729,-1.27938 -0.8158,-1.97785 1.44719,-4.80236 3.10882,-9.95049 4.937,-15.31004 0.2882,-0.84666 1.19984,-1.15193 2.03265,-0.73601 z"
   id="path22"
   inkscape:transform-center-x="-5.4700777"
   inkscape:transform-center-y="39.452931"
   style="stroke-width:0.992645" />
<path
   fill-rule="evenodd"
   clip-rule="evenodd"
   fill="#1d224d"
   d="m 146.84996,192.02602 c 5.78677,1.57576 11.48078,2.82648 17.10697,3.75514 0.8258,0.14029 1.08714,0.73108 0.5246,1.35446 -3.6095,3.98534 -7.30577,7.65749 -11.00603,10.93349 -0.5406,0.4831 -1.5938,0.92767 -2.32787,0.93063 -4.92503,0.0119 -9.85306,-0.3843 -14.79206,-1.18848 -0.7381,-0.11856 -0.9894,-0.75182 -0.5785,-1.35545 2.82057,-4.15032 5.73789,-8.69482 8.67815,-13.51002 0.4658,-0.76269 1.52598,-1.15786 2.39469,-0.91977 z"
   id="path24"
   inkscape:transform-center-x="-27.639367"
   inkscape:transform-center-y="45.793799"
   style="stroke-width:0.992645" />
<path
   fill-rule="evenodd"
   clip-rule="evenodd"
   fill="#1d224d"
   d="m 170.68123,196.51718 c 5.31002,0.28847 10.49038,0.26575 15.46528,-0.0859 0.7281,-0.0504 0.8917,0.26773 0.2733,0.6708 -4.06131,2.64668 -8.3161,4.96932 -12.6876,6.9284 -0.6523,0.29341 -1.76635,0.71921 -2.45653,0.95039 -4.61385,1.55205 -9.34739,2.71979 -14.14676,3.51211 -0.7341,0.11954 -0.8527,-0.19067 -0.2872,-0.64413 3.83391,-3.08335 7.64587,-6.56484 11.35411,-10.35258 0.5815,-0.59276 1.66063,-1.02449 2.48546,-0.97904 z"
   id="path26"
   inkscape:transform-center-x="-49.102507"
   inkscape:transform-center-y="47.787679"
   style="stroke-width:0.992645" />
<path
   fill-rule="evenodd"
   clip-rule="evenodd"
   fill="#1d224d"
   d="m 128.28285,83.025108 c 4.59689,-1.548096 9.33143,-2.723739 14.14376,-3.512112 0.7281,-0.121516 0.8428,0.195612 0.2813,0.641171 -3.82094,3.03395 -7.61795,6.471966 -11.31421,10.24094 -0.5765,0.592762 -1.65764,1.026465 -2.48147,0.98102 -5.32299,-0.283537 -10.50634,-0.251923 -15.46628,0.109661 -0.7261,0.05236 -0.8687,-0.265754 -0.2513,-0.665868 4.05133,-2.633837 8.28618,-4.924859 12.6487,-6.84343 0.6513,-0.28749 1.75438,-0.720205 2.43958,-0.951382 z"
   id="path28"
   inkscape:transform-center-x="-5.3927887"
   inkscape:transform-center-y="-69.19555"
   style="stroke-width:0.992645" />
<path
   fill-rule="evenodd"
   clip-rule="evenodd"
   fill="#1d224d"
   d="m 148.40786,79.000258 c 4.92404,-0.01185 9.85306,0.384307 14.79206,1.186511 0.7291,0.115588 0.9804,0.763674 0.5775,1.355447 -2.80561,4.101909 -5.70199,8.59998 -8.62828,13.391464 -0.4688,0.7617 -1.53895,1.15293 -2.39969,0.91977 -5.78576,-1.57279 -11.48077,-2.821542 -17.11195,-3.74625 -0.8278,-0.135347 -1.08913,-0.731073 -0.5216,-1.353472 3.59553,-3.959646 7.27484,-7.595249 10.95815,-10.825799 0.5356,-0.471245 1.5958,-0.923719 2.33385,-0.927671 z"
   id="path30"
   inkscape:transform-center-x="-26.8498"
   inkscape:transform-center-y="-67.224449"
   style="stroke-width:0.992645" />
<path
   fill-rule="evenodd"
   clip-rule="evenodd"
   fill="#1d224d"
   d="m 169.21309,81.690407 c 4.8632,1.649852 9.63164,3.741312 14.13778,6.209175 0.6652,0.36356 1.01732,1.289256 0.8139,1.977847 -1.42924,4.754931 -3.06892,9.855651 -4.88614,15.189511 -0.2912,0.84765 -1.20483,1.15193 -2.03165,0.73799 -5.6222,-2.81463 -11.4708,-5.3803 -17.34135,-7.61501 -0.8677,-0.33096 -1.2507,-1.20627 -0.8099,-1.98575 2.7707,-4.913005 5.48655,-9.545435 8.08571,-13.786643 0.378,-0.611532 1.31055,-0.973116 2.03165,-0.72712 z"
   id="path32"
   inkscape:transform-center-x="-49.025784"
   inkscape:transform-center-y="-60.884342"
   style="stroke-width:0.992645" />
<path
   fill-rule="evenodd"
   clip-rule="evenodd"
   fill="#fab81e"
   d="m 214.89782,152.66569 c 4.98986,2.75436 9.70445,5.46427 14.06796,8.08427 0.6303,0.37838 1.01733,1.31692 0.766,2.04009 -1.68856,4.84089 -3.801,9.56223 -6.28546,14.03362 -0.37,0.67179 -1.33548,1.01757 -2.03963,0.80714 -4.88912,-1.44239 -10.08345,-3.08729 -15.49819,-4.89719 -0.8508,-0.28749 -1.14698,-1.18848 -0.7251,-2.0223 2.83853,-5.58283 5.42772,-11.36916 7.70971,-17.22071 0.3431,-0.8674 1.21679,-1.26159 2.00472,-0.82492"
   id="path34"
   inkscape:transform-center-x="-94.860037"
   inkscape:transform-center-y="10.404609"
   style="stroke-width:0.992645" />
<path
   fill-rule="evenodd"
   clip-rule="evenodd"
   fill="#1d224d"
   d="m 188.23801,114.51952 c 5.27311,3.18214 10.24502,6.49469 14.93867,9.94554 0.6872,0.5078 1.12204,1.64986 0.9465,2.48466 -1.1809,5.72213 -2.65402,11.52822 -4.42037,17.42027 -0.2673,0.89013 -1.15296,1.24381 -1.95685,0.80616 -5.50949,-3.03099 -11.25137,-6.04518 -17.26355,-9.06728 -0.9106,-0.45445 -1.34446,-1.60144 -0.9774,-2.54689 2.42761,-6.2566 4.67469,-12.35908 6.74025,-18.31436 0.3042,-0.86147 1.20283,-1.2112 1.99276,-0.7281 z"
   id="path36"
   inkscape:transform-center-x="-69.22722"
   inkscape:transform-center-y="-24.852589"
   style="stroke-width:0.992645" />
<path
   fill-rule="evenodd"
   clip-rule="evenodd"
   fill="#fab81e"
   d="m 132.54263,156.19459 c 6.46199,2.9727 13.09652,5.8881 19.67421,8.64148 0.9685,0.40604 1.40131,1.49375 0.9495,2.41253 -2.98415,6.05309 -5.94036,11.87399 -8.87364,17.45287 -0.4289,0.81504 -1.53297,1.22701 -2.42961,0.88123 -6.04708,-2.35029 -12.08119,-4.99796 -17.8899,-7.861 -0.8597,-0.42481 -1.29858,-1.51154 -0.9734,-2.37301 2.2052,-5.896 4.57296,-11.97971 7.09732,-18.23137 0.384,-0.94841 1.48808,-1.36433 2.44556,-0.92273 z"
   id="path38"
   inkscape:transform-center-x="-15.577874"
   inkscape:transform-center-y="16.177126"
   style="stroke-width:0.992645" />
<path
   fill-rule="evenodd"
   clip-rule="evenodd"
   fill="#1d224d"
   d="m 145.02178,128.03843 c 6.62057,2.81265 13.31893,5.75472 19.87966,8.7294 0.9685,0.43963 1.42226,1.61033 0.9994,2.58246 -2.84152,6.56384 -5.79474,13.15634 -8.78487,19.62633 -0.4468,0.96422 -1.62871,1.41571 -2.60514,0.99979 -6.62855,-2.81463 -13.32692,-5.75868 -19.87668,-8.73039 -0.9655,-0.43666 -1.42225,-1.60539 -0.9984,-2.58147 2.83055,-6.54014 5.78078,-13.13065 8.78288,-19.62633 0.4448,-0.96324 1.62672,-1.41571 2.60315,-0.99979 z"
   id="path40"
   inkscape:transform-center-x="-27.22703"
   inkscape:transform-center-y="-10.677218"
   style="stroke-width:0.992645" />
<path
   fill-rule="evenodd"
   clip-rule="evenodd"
   fill="#1d224d"
   d="m 157.73232,102.30665 c 6.04009,2.34239 12.07122,4.99204 17.89289,7.85902 0.8557,0.42284 1.2926,1.51353 0.9744,2.37402 -2.22913,5.94342 -4.61086,12.05084 -7.14618,18.3272 -0.384,0.94446 -1.48908,1.35841 -2.44357,0.92075 -6.47396,-2.97862 -13.10949,-5.89303 -19.6772,-8.64048 -0.9694,-0.40901 -1.40131,-1.49574 -0.9485,-2.41452 2.99312,-6.07284 5.9653,-11.91846 8.91453,-17.54871 0.4299,-0.81504 1.53995,-1.22207 2.4336,-0.87728 z"
   id="path42"
   inkscape:transform-center-x="-38.91261"
   inkscape:transform-center-y="-37.611822"
   style="stroke-width:0.992645" />
<path
   fill-rule="evenodd"
   clip-rule="evenodd"
   fill="#fab81e"
   d="m 132.91166,95.52151 c 5.73191,1.12525 11.5486,2.55381 17.473,4.28368 0.8807,0.25786 1.23375,1.1549 0.7879,1.95513 -3.06593,5.51169 -6.12189,11.25753 -9.17784,17.24245 -0.4598,0.90396 -1.62473,1.34754 -2.55727,0.99386 -6.29942,-2.38488 -12.41033,-4.57809 -18.37562,-6.58953 -0.8707,-0.29243 -1.19685,-1.18552 -0.7111,-1.97785 3.22152,-5.24792 6.57868,-10.23008 10.0665,-14.93759 0.5087,-0.68563 1.65564,-1.13613 2.49443,-0.97015 z"
   id="path44"
   inkscape:transform-center-x="-13.204085"
   inkscape:transform-center-y="-46.882072"
   style="stroke-width:0.992645" />
<path
   fill-rule="evenodd"
   clip-rule="evenodd"
   fill="#fab81e"
   d="m 71.289884,146.74795 c 3.06194,3.86975 6.51884,7.69108 10.30687,11.40473 0.5914,0.57498 0.9904,1.6627 0.9375,2.48071 -0.3411,5.26767 -0.383,10.40296 -0.1147,15.2873 0.043,0.72021 -0.2723,0.83679 -0.6722,0.22328 -2.63905,-4.0614 -4.94199,-8.32631 -6.86692,-12.74239 -0.2882,-0.65895 -0.7012,-1.74765 -0.9226,-2.42637 -1.47113,-4.52079 -2.58619,-9.20558 -3.33422,-13.96348 -0.1137,-0.72613 0.2174,-0.83678 0.6662,-0.26378 z"
   id="path46"
   inkscape:transform-center-x="45.971173"
   inkscape:transform-center-y="6.7768621"
   style="stroke-width:0.992645" />
<path
   fill-rule="evenodd"
   clip-rule="evenodd"
   fill="#fab81e"
   d="m 66.523434,103.9891 c 4.86419,1.43745 10.05952,3.08236 15.48424,4.89522 0.8517,0.28749 1.14498,1.19145 0.7221,2.02232 -2.8455,5.60455 -5.43369,11.38793 -7.70671,17.2207 -0.3391,0.87037 -1.2128,1.26061 -1.99973,0.82493 -4.99984,-2.76227 -9.71542,-5.47119 -14.055,-8.07934 -0.6293,-0.37937 -0.9954,-1.30901 -0.743,-2.0312 1.67957,-4.82606 3.79102,-9.54445 6.28046,-14.0356 0.375,-0.67081 1.31155,-1.02449 2.01769,-0.81703 z"
   id="path48"
   inkscape:transform-center-x="52.008145"
   inkscape:transform-center-y="-38.153951"
   style="stroke-width:0.992645" />
<path
   fill-rule="evenodd"
   clip-rule="evenodd"
   fill="#fab81e"
   d="m 242.07727,133.92554 c 4.00246,3.59608 7.68078,7.288 10.98707,11.02536 0.4837,0.54731 0.9455,1.62812 0.9355,2.36116 -0.037,4.91795 -0.4747,9.85071 -1.30756,14.77359 -0.1217,0.73997 -0.7919,0.98102 -1.40131,0.57004 -4.20094,-2.84624 -8.76592,-5.76164 -13.61615,-8.6968 -0.762,-0.45939 -1.14499,-1.52734 -0.8976,-2.39969 1.61974,-5.7735 2.93427,-11.47586 3.93564,-17.10314 0.1486,-0.82493 0.7411,-1.09266 1.36441,-0.53052 z"
   id="path50"
   inkscape:transform-center-x="-122.81"
   inkscape:transform-center-y="-6.4430015"
   style="stroke-width:0.992645" />
</svg>
